<svg width="442" height="140" viewBox="0 0 442 140" fill="none" xmlns="http://www.w3.org/2000/svg">
<rect x="36" y="108" width="32" height="32" rx="4" fill="#16A34A"/>
<rect y="108" width="32" height="32" rx="4" fill="#16A34A"/>
<rect x="72" y="72" width="32" height="32" rx="4" fill="#16A34A"/>
<rect x="36" y="72" width="32" height="32" rx="4" fill="#16A34A"/>
<rect y="72" width="32" height="32" rx="4" fill="#16A34A"/>
<rect x="36" y="36" width="32" height="32" rx="4" fill="#16A34A"/>
<rect y="36" width="32" height="32" rx="4" fill="#16A34A"/>
<rect x="72" width="32" height="32" rx="4" fill="#16A34A"/>
<rect x="36" width="32" height="32" rx="4" fill="#16A34A"/>
<path d="M0 16C0 7.16344 7.16344 0 16 0V0C24.8366 0 32 7.16344 32 16V16C32 24.8366 24.8366 32 16 32V32C7.16344 32 0 24.8366 0 16V16Z" fill="#DC2626"/>
<path d="M118.943 40.7273V64H114.023V40.7273H118.943ZM142.457 40.7273V64H138.207L128.082 49.3523H127.912V64H122.991V40.7273H127.31L137.355 55.3636H137.56V40.7273H142.457ZM159.148 47.4205C159.057 46.5038 158.667 45.7917 157.977 45.2841C157.288 44.7765 156.352 44.5227 155.17 44.5227C154.367 44.5227 153.689 44.6364 153.136 44.8636C152.583 45.0833 152.159 45.3902 151.864 45.7841C151.576 46.178 151.432 46.625 151.432 47.125C151.417 47.5417 151.504 47.9053 151.693 48.2159C151.89 48.5265 152.159 48.7955 152.5 49.0227C152.841 49.2424 153.235 49.4356 153.682 49.6023C154.129 49.7614 154.606 49.8977 155.114 50.0114L157.205 50.5114C158.22 50.7386 159.152 51.0417 160 51.4205C160.848 51.7992 161.583 52.2652 162.205 52.8182C162.826 53.3712 163.307 54.0227 163.648 54.7727C163.996 55.5227 164.174 56.3826 164.182 57.3523C164.174 58.7765 163.811 60.0114 163.091 61.0568C162.379 62.0947 161.348 62.9015 160 63.4773C158.659 64.0455 157.042 64.3295 155.148 64.3295C153.269 64.3295 151.633 64.0417 150.239 63.4659C148.852 62.8902 147.769 62.0379 146.989 60.9091C146.216 59.7727 145.811 58.3674 145.773 56.6932H150.534C150.587 57.4735 150.811 58.125 151.205 58.6477C151.606 59.1629 152.14 59.553 152.807 59.8182C153.481 60.0758 154.242 60.2045 155.091 60.2045C155.924 60.2045 156.648 60.0833 157.261 59.8409C157.883 59.5985 158.364 59.2614 158.705 58.8295C159.045 58.3977 159.216 57.9015 159.216 57.3409C159.216 56.8182 159.061 56.3788 158.75 56.0227C158.447 55.6667 158 55.3636 157.409 55.1136C156.826 54.8636 156.11 54.6364 155.261 54.4318L152.727 53.7955C150.765 53.3182 149.216 52.572 148.08 51.5568C146.943 50.5417 146.379 49.1742 146.386 47.4545C146.379 46.0455 146.754 44.8144 147.511 43.7614C148.277 42.7083 149.326 41.8864 150.659 41.2955C151.992 40.7045 153.508 40.4091 155.205 40.4091C156.932 40.4091 158.439 40.7045 159.727 41.2955C161.023 41.8864 162.03 42.7083 162.75 43.7614C163.47 44.8144 163.841 46.0341 163.864 47.4205H159.148ZM166.605 44.7841V40.7273H185.719V44.7841H178.594V64H173.73V44.7841H166.605ZM193.787 40.7273V64H188.866V40.7273H193.787ZM196.949 44.7841V40.7273H216.062V44.7841H208.938V64H204.074V44.7841H196.949ZM233.585 40.7273H238.506V55.8409C238.506 57.5379 238.1 59.0227 237.29 60.2955C236.487 61.5682 235.362 62.5606 233.915 63.2727C232.468 63.9773 230.782 64.3295 228.858 64.3295C226.926 64.3295 225.237 63.9773 223.79 63.2727C222.343 62.5606 221.218 61.5682 220.415 60.2955C219.612 59.0227 219.21 57.5379 219.21 55.8409V40.7273H224.131V55.4205C224.131 56.3068 224.324 57.0947 224.71 57.7841C225.104 58.4735 225.657 59.0152 226.369 59.4091C227.081 59.803 227.911 60 228.858 60C229.813 60 230.642 59.803 231.347 59.4091C232.059 59.0152 232.608 58.4735 232.994 57.7841C233.388 57.0947 233.585 56.3068 233.585 55.4205V40.7273ZM241.668 44.7841V40.7273H260.781V44.7841H253.656V64H248.793V44.7841H241.668ZM284.253 52.3636C284.253 54.9015 283.772 57.0606 282.81 58.8409C281.855 60.6212 280.552 61.9811 278.901 62.9205C277.257 63.8523 275.408 64.3182 273.355 64.3182C271.287 64.3182 269.431 63.8485 267.787 62.9091C266.143 61.9697 264.844 60.6098 263.889 58.8295C262.935 57.0492 262.457 54.8939 262.457 52.3636C262.457 49.8258 262.935 47.6667 263.889 45.8864C264.844 44.1061 266.143 42.75 267.787 41.8182C269.431 40.8788 271.287 40.4091 273.355 40.4091C275.408 40.4091 277.257 40.8788 278.901 41.8182C280.552 42.75 281.855 44.1061 282.81 45.8864C283.772 47.6667 284.253 49.8258 284.253 52.3636ZM279.264 52.3636C279.264 50.7197 279.018 49.3333 278.526 48.2045C278.041 47.0758 277.355 46.2197 276.469 45.6364C275.582 45.053 274.545 44.7614 273.355 44.7614C272.166 44.7614 271.128 45.053 270.241 45.6364C269.355 46.2197 268.666 47.0758 268.173 48.2045C267.688 49.3333 267.446 50.7197 267.446 52.3636C267.446 54.0076 267.688 55.3939 268.173 56.5227C268.666 57.6515 269.355 58.5076 270.241 59.0909C271.128 59.6742 272.166 59.9659 273.355 59.9659C274.545 59.9659 275.582 59.6742 276.469 59.0909C277.355 58.5076 278.041 57.6515 278.526 56.5227C279.018 55.3939 279.264 54.0076 279.264 52.3636ZM295.304 64V40.7273H310.713V44.7841H300.224V50.3295H309.69V54.3864H300.224V64H295.304ZM314.023 64V40.7273H329.705V44.7841H318.943V50.3295H328.898V54.3864H318.943V59.9432H329.75V64H314.023ZM341.866 64H333.616V40.7273H341.935C344.276 40.7273 346.291 41.1932 347.98 42.125C349.67 43.0492 350.969 44.3788 351.878 46.1136C352.795 47.8485 353.253 49.9242 353.253 52.3409C353.253 54.7652 352.795 56.8485 351.878 58.5909C350.969 60.3333 349.662 61.6705 347.957 62.6023C346.26 63.5341 344.23 64 341.866 64ZM338.537 59.7841H341.662C343.116 59.7841 344.34 59.5265 345.332 59.0114C346.332 58.4886 347.082 57.6818 347.582 56.5909C348.09 55.4924 348.344 54.0758 348.344 52.3409C348.344 50.6212 348.09 49.2159 347.582 48.125C347.082 47.0341 346.336 46.2311 345.344 45.7159C344.351 45.2008 343.128 44.9432 341.673 44.9432H338.537V59.7841ZM356.898 64V40.7273H372.58V44.7841H361.818V50.3295H371.773V54.3864H361.818V59.9432H372.625V64H356.898ZM376.491 64V40.7273H385.673C387.431 40.7273 388.931 41.0417 390.173 41.6705C391.423 42.2917 392.374 43.1742 393.026 44.3182C393.685 45.4545 394.014 46.7917 394.014 48.3295C394.014 49.875 393.681 51.2045 393.014 52.3182C392.348 53.4242 391.382 54.2727 390.116 54.8636C388.859 55.4545 387.336 55.75 385.548 55.75H379.401V51.7955H384.753C385.692 51.7955 386.473 51.6667 387.094 51.4091C387.715 51.1515 388.177 50.7652 388.48 50.25C388.791 49.7348 388.946 49.0947 388.946 48.3295C388.946 47.5568 388.791 46.9053 388.48 46.375C388.177 45.8447 387.711 45.4432 387.082 45.1705C386.461 44.8902 385.677 44.75 384.73 44.75H381.412V64H376.491ZM389.06 53.4091L394.844 64H389.412L383.753 53.4091H389.06ZM401.503 64H396.23L404.264 40.7273H410.605L418.628 64H413.355L407.526 46.0455H407.344L401.503 64ZM401.173 54.8523H413.628V58.6932H401.173V54.8523ZM421.429 64V40.7273H426.349V59.9432H436.327V64H421.429Z" fill="#F2F2F2"/>
<path d="M123.659 83.9091C123.557 83.0455 123.142 82.375 122.415 81.8977C121.688 81.4205 120.795 81.1818 119.739 81.1818C118.966 81.1818 118.29 81.3068 117.71 81.5568C117.136 81.8068 116.688 82.1506 116.364 82.5881C116.045 83.0256 115.886 83.5227 115.886 84.0795C115.886 84.5455 115.997 84.946 116.219 85.2812C116.446 85.6108 116.736 85.8864 117.088 86.108C117.44 86.3239 117.81 86.5028 118.196 86.6449C118.582 86.7812 118.938 86.892 119.261 86.9773L121.034 87.4545C121.489 87.5739 121.994 87.7386 122.551 87.9489C123.114 88.1591 123.651 88.446 124.162 88.8097C124.679 89.1676 125.105 89.6278 125.44 90.1903C125.776 90.7528 125.943 91.4432 125.943 92.2614C125.943 93.2045 125.696 94.0568 125.202 94.8182C124.713 95.5795 123.997 96.1847 123.054 96.6335C122.116 97.0824 120.977 97.3068 119.636 97.3068C118.386 97.3068 117.304 97.1051 116.389 96.7017C115.48 96.2983 114.764 95.7358 114.241 95.0142C113.724 94.2926 113.432 93.4545 113.364 92.5H115.545C115.602 93.1591 115.824 93.7045 116.21 94.1364C116.602 94.5625 117.097 94.8807 117.693 95.0909C118.295 95.2955 118.943 95.3977 119.636 95.3977C120.443 95.3977 121.168 95.267 121.81 95.0057C122.452 94.7386 122.96 94.3693 123.335 93.8977C123.71 93.4205 123.898 92.8636 123.898 92.2273C123.898 91.6477 123.736 91.1761 123.412 90.8125C123.088 90.4489 122.662 90.1534 122.134 89.9261C121.605 89.6989 121.034 89.5 120.42 89.3295L118.273 88.7159C116.909 88.3239 115.83 87.7642 115.034 87.0369C114.239 86.3097 113.841 85.358 113.841 84.1818C113.841 83.2045 114.105 82.3523 114.634 81.625C115.168 80.892 115.884 80.3239 116.781 79.9205C117.685 79.5114 118.693 79.3068 119.807 79.3068C120.932 79.3068 121.932 79.5085 122.807 79.9119C123.682 80.3097 124.375 80.8551 124.886 81.5483C125.403 82.2415 125.676 83.0284 125.705 83.9091H123.659ZM132.998 97.3068C132.168 97.3068 131.415 97.1506 130.739 96.8381C130.063 96.5199 129.526 96.0625 129.129 95.4659C128.731 94.8636 128.532 94.1364 128.532 93.2841C128.532 92.5341 128.68 91.9261 128.975 91.4602C129.271 90.9886 129.665 90.6193 130.16 90.3523C130.654 90.0852 131.2 89.8864 131.796 89.7557C132.398 89.6193 133.004 89.5114 133.612 89.4318C134.407 89.3295 135.052 89.2528 135.546 89.2017C136.046 89.1449 136.41 89.0511 136.637 88.9205C136.87 88.7898 136.987 88.5625 136.987 88.2386V88.1705C136.987 87.3295 136.756 86.6761 136.296 86.2102C135.842 85.7443 135.151 85.5114 134.225 85.5114C133.265 85.5114 132.512 85.7216 131.967 86.142C131.421 86.5625 131.038 87.0114 130.816 87.4886L128.907 86.8068C129.248 86.0114 129.702 85.392 130.271 84.9489C130.844 84.5 131.469 84.1875 132.146 84.0114C132.827 83.8295 133.498 83.7386 134.157 83.7386C134.577 83.7386 135.06 83.7898 135.606 83.892C136.157 83.9886 136.688 84.1903 137.2 84.4972C137.717 84.804 138.146 85.267 138.487 85.8864C138.827 86.5057 138.998 87.3352 138.998 88.375V97H136.987V95.2273H136.884C136.748 95.5114 136.521 95.8153 136.202 96.1392C135.884 96.4631 135.461 96.7386 134.933 96.9659C134.404 97.1932 133.759 97.3068 132.998 97.3068ZM133.305 95.5C134.1 95.5 134.771 95.3438 135.316 95.0312C135.867 94.7188 136.282 94.3153 136.56 93.821C136.844 93.3267 136.987 92.8068 136.987 92.2614V90.4205C136.901 90.5227 136.714 90.6165 136.424 90.7017C136.14 90.7812 135.81 90.8523 135.435 90.9148C135.066 90.9716 134.705 91.0227 134.353 91.0682C134.006 91.108 133.725 91.142 133.509 91.1705C132.987 91.2386 132.498 91.3494 132.043 91.5028C131.594 91.6506 131.231 91.875 130.952 92.1761C130.68 92.4716 130.543 92.875 130.543 93.3864C130.543 94.0852 130.802 94.6136 131.319 94.9716C131.842 95.3239 132.504 95.5 133.305 95.5ZM131.668 82.3409L130.1 82.2727C130.1 81.4034 130.347 80.6932 130.842 80.142C131.342 79.5852 131.958 79.3068 132.691 79.3068C133.015 79.3068 133.302 79.3636 133.552 79.4773C133.802 79.5852 134.04 79.7102 134.268 79.8523C134.495 79.9943 134.728 80.1222 134.967 80.2358C135.211 80.3437 135.487 80.3977 135.793 80.3977C136.117 80.3977 136.39 80.2727 136.612 80.0227C136.839 79.767 136.952 79.4602 136.952 79.1023L138.487 79.2386C138.487 80.125 138.237 80.8295 137.737 81.3523C137.242 81.875 136.629 82.1364 135.896 82.1364C135.504 82.1364 135.18 82.0824 134.924 81.9744C134.668 81.8608 134.441 81.733 134.242 81.5909C134.043 81.4489 133.833 81.3239 133.612 81.2159C133.39 81.1023 133.117 81.0455 132.793 81.0455C132.469 81.0455 132.2 81.1733 131.984 81.429C131.773 81.679 131.668 81.983 131.668 82.3409ZM147.987 97.2727C146.805 97.2727 145.768 96.9915 144.876 96.429C143.99 95.8665 143.297 95.0795 142.797 94.0682C142.303 93.0568 142.055 91.875 142.055 90.5227C142.055 89.1591 142.303 87.9687 142.797 86.9517C143.297 85.9347 143.99 85.1449 144.876 84.5824C145.768 84.0199 146.805 83.7386 147.987 83.7386C149.169 83.7386 150.203 84.0199 151.089 84.5824C151.982 85.1449 152.675 85.9347 153.169 86.9517C153.669 87.9687 153.919 89.1591 153.919 90.5227C153.919 91.875 153.669 93.0568 153.169 94.0682C152.675 95.0795 151.982 95.8665 151.089 96.429C150.203 96.9915 149.169 97.2727 147.987 97.2727ZM147.987 95.4659C148.885 95.4659 149.624 95.2358 150.203 94.7756C150.783 94.3153 151.212 93.7102 151.49 92.9602C151.768 92.2102 151.908 91.3977 151.908 90.5227C151.908 89.6477 151.768 88.8324 151.49 88.0767C151.212 87.321 150.783 86.7102 150.203 86.2443C149.624 85.7784 148.885 85.5455 147.987 85.5455C147.089 85.5455 146.351 85.7784 145.771 86.2443C145.192 86.7102 144.763 87.321 144.484 88.0767C144.206 88.8324 144.067 89.6477 144.067 90.5227C144.067 91.3977 144.206 92.2102 144.484 92.9602C144.763 93.7102 145.192 94.3153 145.771 94.7756C146.351 95.2358 147.089 95.4659 147.987 95.4659ZM164.012 97V79.5455H169.91C171.279 79.5455 172.398 79.7926 173.268 80.2869C174.143 80.7756 174.79 81.4375 175.211 82.2727C175.631 83.108 175.842 84.0398 175.842 85.0682C175.842 86.0966 175.631 87.0312 175.211 87.8722C174.796 88.7131 174.154 89.3835 173.285 89.8835C172.415 90.3778 171.302 90.625 169.944 90.625H165.717V88.75H169.876C170.813 88.75 171.566 88.5881 172.134 88.2642C172.702 87.9403 173.114 87.5028 173.37 86.9517C173.631 86.3949 173.762 85.767 173.762 85.0682C173.762 84.3693 173.631 83.7443 173.37 83.1932C173.114 82.642 172.7 82.2102 172.126 81.8977C171.552 81.5795 170.79 81.4205 169.842 81.4205H166.126V97H164.012ZM182.826 97.3068C181.996 97.3068 181.244 97.1506 180.567 96.8381C179.891 96.5199 179.354 96.0625 178.957 95.4659C178.559 94.8636 178.36 94.1364 178.36 93.2841C178.36 92.5341 178.508 91.9261 178.803 91.4602C179.099 90.9886 179.494 90.6193 179.988 90.3523C180.482 90.0852 181.028 89.8864 181.624 89.7557C182.227 89.6193 182.832 89.5114 183.44 89.4318C184.235 89.3295 184.88 89.2528 185.374 89.2017C185.874 89.1449 186.238 89.0511 186.465 88.9205C186.698 88.7898 186.815 88.5625 186.815 88.2386V88.1705C186.815 87.3295 186.585 86.6761 186.124 86.2102C185.67 85.7443 184.979 85.5114 184.053 85.5114C183.093 85.5114 182.34 85.7216 181.795 86.142C181.249 86.5625 180.866 87.0114 180.644 87.4886L178.735 86.8068C179.076 86.0114 179.531 85.392 180.099 84.9489C180.673 84.5 181.298 84.1875 181.974 84.0114C182.656 83.8295 183.326 83.7386 183.985 83.7386C184.406 83.7386 184.888 83.7898 185.434 83.892C185.985 83.9886 186.516 84.1903 187.028 84.4972C187.545 84.804 187.974 85.267 188.315 85.8864C188.656 86.5057 188.826 87.3352 188.826 88.375V97H186.815V95.2273H186.712C186.576 95.5114 186.349 95.8153 186.031 96.1392C185.712 96.4631 185.289 96.7386 184.761 96.9659C184.232 97.1932 183.587 97.3068 182.826 97.3068ZM183.133 95.5C183.928 95.5 184.599 95.3438 185.144 95.0312C185.695 94.7188 186.11 94.3153 186.388 93.821C186.673 93.3267 186.815 92.8068 186.815 92.2614V90.4205C186.729 90.5227 186.542 90.6165 186.252 90.7017C185.968 90.7812 185.638 90.8523 185.263 90.9148C184.894 90.9716 184.533 91.0227 184.181 91.0682C183.835 91.108 183.553 91.142 183.337 91.1705C182.815 91.2386 182.326 91.3494 181.871 91.5028C181.423 91.6506 181.059 91.875 180.781 92.1761C180.508 92.4716 180.371 92.875 180.371 93.3864C180.371 94.0852 180.63 94.6136 181.147 94.9716C181.67 95.3239 182.332 95.5 183.133 95.5ZM200.747 91.6477V83.9091H202.759V97H200.747V94.7841H200.611C200.304 95.4489 199.827 96.0142 199.179 96.4801C198.531 96.9403 197.713 97.1705 196.724 97.1705C195.906 97.1705 195.179 96.9915 194.543 96.6335C193.906 96.2699 193.406 95.7244 193.043 94.9972C192.679 94.2642 192.497 93.3409 192.497 92.2273V83.9091H194.509V92.0909C194.509 93.0455 194.776 93.8068 195.31 94.375C195.849 94.9432 196.537 95.2273 197.372 95.2273C197.872 95.2273 198.381 95.0994 198.898 94.8438C199.42 94.5881 199.858 94.196 200.21 93.6676C200.568 93.1392 200.747 92.4659 200.747 91.6477ZM208.454 79.5455V97H206.442V79.5455H208.454ZM217.456 97.2727C216.274 97.2727 215.237 96.9915 214.345 96.429C213.459 95.8665 212.766 95.0795 212.266 94.0682C211.771 93.0568 211.524 91.875 211.524 90.5227C211.524 89.1591 211.771 87.9687 212.266 86.9517C212.766 85.9347 213.459 85.1449 214.345 84.5824C215.237 84.0199 216.274 83.7386 217.456 83.7386C218.638 83.7386 219.672 84.0199 220.558 84.5824C221.45 85.1449 222.143 85.9347 222.638 86.9517C223.138 87.9687 223.388 89.1591 223.388 90.5227C223.388 91.875 223.138 93.0568 222.638 94.0682C222.143 95.0795 221.45 95.8665 220.558 96.429C219.672 96.9915 218.638 97.2727 217.456 97.2727ZM217.456 95.4659C218.354 95.4659 219.092 95.2358 219.672 94.7756C220.251 94.3153 220.68 93.7102 220.959 92.9602C221.237 92.2102 221.376 91.3977 221.376 90.5227C221.376 89.6477 221.237 88.8324 220.959 88.0767C220.68 87.321 220.251 86.7102 219.672 86.2443C219.092 85.7784 218.354 85.5455 217.456 85.5455C216.558 85.5455 215.82 85.7784 215.24 86.2443C214.661 86.7102 214.232 87.321 213.953 88.0767C213.675 88.8324 213.536 89.6477 213.536 90.5227C213.536 91.3977 213.675 92.2102 213.953 92.9602C214.232 93.7102 214.661 94.3153 215.24 94.7756C215.82 95.2358 216.558 95.4659 217.456 95.4659Z" fill="#F2F2F2"/>
<path d="M114.114 133V115.545H120.011C121.381 115.545 122.5 115.793 123.369 116.287C124.244 116.776 124.892 117.438 125.312 118.273C125.733 119.108 125.943 120.04 125.943 121.068C125.943 122.097 125.733 123.031 125.312 123.872C124.898 124.713 124.256 125.384 123.386 125.884C122.517 126.378 121.403 126.625 120.045 126.625H115.818V124.75H119.977C120.915 124.75 121.668 124.588 122.236 124.264C122.804 123.94 123.216 123.503 123.472 122.952C123.733 122.395 123.864 121.767 123.864 121.068C123.864 120.369 123.733 119.744 123.472 119.193C123.216 118.642 122.801 118.21 122.227 117.898C121.653 117.58 120.892 117.42 119.943 117.42H116.227V133H114.114ZM134.253 133.273C133.071 133.273 132.034 132.991 131.142 132.429C130.256 131.866 129.562 131.08 129.062 130.068C128.568 129.057 128.321 127.875 128.321 126.523C128.321 125.159 128.568 123.969 129.062 122.952C129.562 121.935 130.256 121.145 131.142 120.582C132.034 120.02 133.071 119.739 134.253 119.739C135.435 119.739 136.469 120.02 137.355 120.582C138.247 121.145 138.94 121.935 139.435 122.952C139.935 123.969 140.185 125.159 140.185 126.523C140.185 127.875 139.935 129.057 139.435 130.068C138.94 131.08 138.247 131.866 137.355 132.429C136.469 132.991 135.435 133.273 134.253 133.273ZM134.253 131.466C135.151 131.466 135.889 131.236 136.469 130.776C137.048 130.315 137.477 129.71 137.756 128.96C138.034 128.21 138.173 127.398 138.173 126.523C138.173 125.648 138.034 124.832 137.756 124.077C137.477 123.321 137.048 122.71 136.469 122.244C135.889 121.778 135.151 121.545 134.253 121.545C133.355 121.545 132.616 121.778 132.037 122.244C131.457 122.71 131.028 123.321 130.75 124.077C130.472 124.832 130.332 125.648 130.332 126.523C130.332 127.398 130.472 128.21 130.75 128.96C131.028 129.71 131.457 130.315 132.037 130.776C132.616 131.236 133.355 131.466 134.253 131.466ZM143.255 133V119.909H145.198V121.886H145.335C145.573 121.239 146.005 120.713 146.63 120.31C147.255 119.906 147.96 119.705 148.744 119.705C148.891 119.705 149.076 119.707 149.298 119.713C149.519 119.719 149.687 119.727 149.8 119.739V121.784C149.732 121.767 149.576 121.741 149.332 121.707C149.093 121.668 148.84 121.648 148.573 121.648C147.937 121.648 147.369 121.781 146.869 122.048C146.374 122.31 145.982 122.673 145.692 123.139C145.408 123.599 145.266 124.125 145.266 124.716V133H143.255ZM158.698 119.909V121.614H151.914V119.909H158.698ZM153.891 116.773H155.903V129.25C155.903 129.818 155.985 130.244 156.15 130.528C156.32 130.807 156.536 130.994 156.798 131.091C157.065 131.182 157.346 131.227 157.641 131.227C157.863 131.227 158.045 131.216 158.187 131.193C158.329 131.165 158.442 131.142 158.528 131.125L158.937 132.932C158.8 132.983 158.61 133.034 158.366 133.085C158.121 133.142 157.812 133.17 157.437 133.17C156.869 133.17 156.312 133.048 155.766 132.804C155.227 132.56 154.778 132.188 154.42 131.688C154.067 131.188 153.891 130.557 153.891 129.795V116.773ZM165.576 133.307C164.746 133.307 163.994 133.151 163.317 132.838C162.641 132.52 162.104 132.062 161.707 131.466C161.309 130.864 161.11 130.136 161.11 129.284C161.11 128.534 161.258 127.926 161.553 127.46C161.849 126.989 162.244 126.619 162.738 126.352C163.232 126.085 163.778 125.886 164.374 125.756C164.977 125.619 165.582 125.511 166.19 125.432C166.985 125.33 167.63 125.253 168.124 125.202C168.624 125.145 168.988 125.051 169.215 124.92C169.448 124.79 169.565 124.562 169.565 124.239V124.17C169.565 123.33 169.335 122.676 168.874 122.21C168.42 121.744 167.729 121.511 166.803 121.511C165.843 121.511 165.09 121.722 164.545 122.142C163.999 122.562 163.616 123.011 163.394 123.489L161.485 122.807C161.826 122.011 162.281 121.392 162.849 120.949C163.423 120.5 164.048 120.187 164.724 120.011C165.406 119.83 166.076 119.739 166.735 119.739C167.156 119.739 167.638 119.79 168.184 119.892C168.735 119.989 169.266 120.19 169.778 120.497C170.295 120.804 170.724 121.267 171.065 121.886C171.406 122.506 171.576 123.335 171.576 124.375V133H169.565V131.227H169.462C169.326 131.511 169.099 131.815 168.781 132.139C168.462 132.463 168.039 132.739 167.511 132.966C166.982 133.193 166.337 133.307 165.576 133.307ZM165.883 131.5C166.678 131.5 167.349 131.344 167.894 131.031C168.445 130.719 168.86 130.315 169.138 129.821C169.423 129.327 169.565 128.807 169.565 128.261V126.42C169.479 126.523 169.292 126.616 169.002 126.702C168.718 126.781 168.388 126.852 168.013 126.915C167.644 126.972 167.283 127.023 166.931 127.068C166.585 127.108 166.303 127.142 166.087 127.17C165.565 127.239 165.076 127.349 164.621 127.503C164.173 127.651 163.809 127.875 163.531 128.176C163.258 128.472 163.121 128.875 163.121 129.386C163.121 130.085 163.38 130.614 163.897 130.972C164.42 131.324 165.082 131.5 165.883 131.5ZM177.259 115.545V133H175.247V115.545H177.259ZM192.636 133.273C191.545 133.273 190.582 132.997 189.746 132.446C188.911 131.889 188.258 131.105 187.786 130.094C187.315 129.077 187.079 127.875 187.079 126.489C187.079 125.114 187.315 123.92 187.786 122.909C188.258 121.898 188.914 121.116 189.755 120.565C190.596 120.014 191.567 119.739 192.67 119.739C193.522 119.739 194.195 119.881 194.69 120.165C195.19 120.443 195.57 120.761 195.832 121.119C196.099 121.472 196.306 121.761 196.454 121.989H196.624V115.545H198.636V133H196.692V130.989H196.454C196.306 131.227 196.096 131.528 195.823 131.892C195.55 132.25 195.161 132.571 194.656 132.855C194.15 133.134 193.477 133.273 192.636 133.273ZM192.908 131.466C193.715 131.466 194.397 131.256 194.954 130.835C195.511 130.409 195.934 129.821 196.224 129.071C196.513 128.315 196.658 127.443 196.658 126.455C196.658 125.477 196.516 124.622 196.232 123.889C195.948 123.151 195.528 122.577 194.971 122.168C194.414 121.753 193.727 121.545 192.908 121.545C192.056 121.545 191.346 121.764 190.778 122.202C190.215 122.634 189.792 123.222 189.508 123.966C189.229 124.705 189.09 125.534 189.09 126.455C189.09 127.386 189.232 128.233 189.516 128.994C189.806 129.75 190.232 130.352 190.795 130.801C191.363 131.244 192.067 131.466 192.908 131.466ZM207.917 133.273C206.735 133.273 205.698 132.991 204.806 132.429C203.92 131.866 203.227 131.08 202.727 130.068C202.232 129.057 201.985 127.875 201.985 126.523C201.985 125.159 202.232 123.969 202.727 122.952C203.227 121.935 203.92 121.145 204.806 120.582C205.698 120.02 206.735 119.739 207.917 119.739C209.099 119.739 210.133 120.02 211.019 120.582C211.911 121.145 212.604 121.935 213.099 122.952C213.599 123.969 213.849 125.159 213.849 126.523C213.849 127.875 213.599 129.057 213.099 130.068C212.604 131.08 211.911 131.866 211.019 132.429C210.133 132.991 209.099 133.273 207.917 133.273ZM207.917 131.466C208.815 131.466 209.553 131.236 210.133 130.776C210.712 130.315 211.141 129.71 211.42 128.96C211.698 128.21 211.837 127.398 211.837 126.523C211.837 125.648 211.698 124.832 211.42 124.077C211.141 123.321 210.712 122.71 210.133 122.244C209.553 121.778 208.815 121.545 207.917 121.545C207.019 121.545 206.281 121.778 205.701 122.244C205.121 122.71 204.692 123.321 204.414 124.077C204.136 124.832 203.996 125.648 203.996 126.523C203.996 127.398 204.136 128.21 204.414 128.96C204.692 129.71 205.121 130.315 205.701 130.776C206.281 131.236 207.019 131.466 207.917 131.466ZM223.942 133V115.545H229.839C231.203 115.545 232.322 115.778 233.197 116.244C234.072 116.705 234.72 117.338 235.141 118.145C235.561 118.952 235.771 119.869 235.771 120.898C235.771 121.926 235.561 122.838 235.141 123.634C234.72 124.429 234.075 125.054 233.206 125.509C232.337 125.957 231.226 126.182 229.874 126.182H225.101V124.273H229.805C230.737 124.273 231.487 124.136 232.055 123.864C232.629 123.591 233.044 123.205 233.3 122.705C233.561 122.199 233.692 121.597 233.692 120.898C233.692 120.199 233.561 119.588 233.3 119.065C233.038 118.543 232.621 118.139 232.047 117.855C231.473 117.565 230.714 117.42 229.771 117.42H226.055V133H223.942ZM232.158 125.159L236.453 133H233.999L229.771 125.159H232.158ZM244.369 133.273C243.107 133.273 242.019 132.994 241.104 132.438C240.195 131.875 239.494 131.091 238.999 130.085C238.511 129.074 238.266 127.898 238.266 126.557C238.266 125.216 238.511 124.034 238.999 123.011C239.494 121.983 240.181 121.182 241.062 120.608C241.948 120.028 242.982 119.739 244.164 119.739C244.846 119.739 245.519 119.852 246.184 120.08C246.849 120.307 247.454 120.676 247.999 121.188C248.545 121.693 248.979 122.364 249.303 123.199C249.627 124.034 249.789 125.062 249.789 126.284V127.136H239.698V125.398H247.744C247.744 124.659 247.596 124 247.3 123.42C247.011 122.841 246.596 122.384 246.056 122.048C245.522 121.713 244.891 121.545 244.164 121.545C243.363 121.545 242.67 121.744 242.085 122.142C241.505 122.534 241.059 123.045 240.746 123.676C240.434 124.307 240.278 124.983 240.278 125.705V126.864C240.278 127.852 240.448 128.69 240.789 129.378C241.136 130.06 241.616 130.58 242.229 130.938C242.843 131.29 243.556 131.466 244.369 131.466C244.897 131.466 245.374 131.392 245.8 131.244C246.232 131.091 246.604 130.864 246.917 130.562C247.229 130.256 247.471 129.875 247.641 129.42L249.585 129.966C249.38 130.625 249.036 131.205 248.553 131.705C248.07 132.199 247.474 132.585 246.763 132.864C246.053 133.136 245.255 133.273 244.369 133.273ZM252.849 137.909V119.909H254.792V121.989H255.031C255.178 121.761 255.383 121.472 255.644 121.119C255.911 120.761 256.292 120.443 256.786 120.165C257.286 119.881 257.962 119.739 258.815 119.739C259.917 119.739 260.888 120.014 261.729 120.565C262.57 121.116 263.227 121.898 263.698 122.909C264.17 123.92 264.406 125.114 264.406 126.489C264.406 127.875 264.17 129.077 263.698 130.094C263.227 131.105 262.573 131.889 261.738 132.446C260.903 132.997 259.94 133.273 258.849 133.273C258.008 133.273 257.335 133.134 256.829 132.855C256.323 132.571 255.934 132.25 255.661 131.892C255.388 131.528 255.178 131.227 255.031 130.989H254.86V137.909H252.849ZM254.826 126.455C254.826 127.443 254.971 128.315 255.261 129.071C255.55 129.821 255.974 130.409 256.531 130.835C257.087 131.256 257.769 131.466 258.576 131.466C259.417 131.466 260.119 131.244 260.681 130.801C261.249 130.352 261.675 129.75 261.96 128.994C262.249 128.233 262.394 127.386 262.394 126.455C262.394 125.534 262.252 124.705 261.968 123.966C261.69 123.222 261.266 122.634 260.698 122.202C260.136 121.764 259.428 121.545 258.576 121.545C257.758 121.545 257.07 121.753 256.513 122.168C255.957 122.577 255.536 123.151 255.252 123.889C254.968 124.622 254.826 125.477 254.826 126.455ZM267.474 133V119.909H269.417V121.886H269.553C269.792 121.239 270.224 120.713 270.849 120.31C271.474 119.906 272.178 119.705 272.962 119.705C273.11 119.705 273.295 119.707 273.516 119.713C273.738 119.719 273.906 119.727 274.019 119.739V121.784C273.951 121.767 273.795 121.741 273.55 121.707C273.312 121.668 273.059 121.648 272.792 121.648C272.156 121.648 271.587 121.781 271.087 122.048C270.593 122.31 270.201 122.673 269.911 123.139C269.627 123.599 269.485 124.125 269.485 124.716V133H267.474ZM281.494 133.273C280.232 133.273 279.144 132.994 278.229 132.438C277.32 131.875 276.619 131.091 276.124 130.085C275.636 129.074 275.391 127.898 275.391 126.557C275.391 125.216 275.636 124.034 276.124 123.011C276.619 121.983 277.306 121.182 278.187 120.608C279.073 120.028 280.107 119.739 281.289 119.739C281.971 119.739 282.644 119.852 283.309 120.08C283.974 120.307 284.579 120.676 285.124 121.188C285.67 121.693 286.104 122.364 286.428 123.199C286.752 124.034 286.914 125.062 286.914 126.284V127.136H276.823V125.398H284.869C284.869 124.659 284.721 124 284.425 123.42C284.136 122.841 283.721 122.384 283.181 122.048C282.647 121.713 282.016 121.545 281.289 121.545C280.488 121.545 279.795 121.744 279.21 122.142C278.63 122.534 278.184 123.045 277.871 123.676C277.559 124.307 277.403 124.983 277.403 125.705V126.864C277.403 127.852 277.573 128.69 277.914 129.378C278.261 130.06 278.741 130.58 279.354 130.938C279.968 131.29 280.681 131.466 281.494 131.466C282.022 131.466 282.499 131.392 282.925 131.244C283.357 131.091 283.729 130.864 284.042 130.562C284.354 130.256 284.596 129.875 284.766 129.42L286.71 129.966C286.505 130.625 286.161 131.205 285.678 131.705C285.195 132.199 284.599 132.585 283.888 132.864C283.178 133.136 282.38 133.273 281.494 133.273ZM299.246 122.841L297.44 123.352C297.326 123.051 297.158 122.759 296.937 122.474C296.721 122.185 296.425 121.946 296.05 121.759C295.675 121.571 295.195 121.477 294.61 121.477C293.809 121.477 293.141 121.662 292.607 122.031C292.079 122.395 291.815 122.858 291.815 123.42C291.815 123.92 291.996 124.315 292.36 124.605C292.724 124.895 293.292 125.136 294.065 125.33L296.008 125.807C297.178 126.091 298.05 126.526 298.624 127.111C299.198 127.69 299.485 128.437 299.485 129.352C299.485 130.102 299.269 130.773 298.837 131.364C298.411 131.955 297.815 132.42 297.048 132.761C296.281 133.102 295.388 133.273 294.371 133.273C293.036 133.273 291.931 132.983 291.056 132.403C290.181 131.824 289.627 130.977 289.394 129.864L291.303 129.386C291.485 130.091 291.829 130.619 292.335 130.972C292.846 131.324 293.513 131.5 294.337 131.5C295.275 131.5 296.019 131.301 296.57 130.903C297.127 130.5 297.406 130.017 297.406 129.455C297.406 129 297.246 128.619 296.928 128.312C296.61 128 296.121 127.767 295.462 127.614L293.281 127.102C292.082 126.818 291.201 126.378 290.638 125.781C290.082 125.179 289.803 124.426 289.803 123.523C289.803 122.784 290.011 122.131 290.425 121.562C290.846 120.994 291.417 120.548 292.138 120.224C292.866 119.901 293.69 119.739 294.61 119.739C295.906 119.739 296.923 120.023 297.661 120.591C298.406 121.159 298.934 121.909 299.246 122.841ZM308.001 133.273C306.74 133.273 305.652 132.994 304.737 132.438C303.828 131.875 303.126 131.091 302.632 130.085C302.143 129.074 301.899 127.898 301.899 126.557C301.899 125.216 302.143 124.034 302.632 123.011C303.126 121.983 303.814 121.182 304.695 120.608C305.581 120.028 306.615 119.739 307.797 119.739C308.479 119.739 309.152 119.852 309.817 120.08C310.482 120.307 311.087 120.676 311.632 121.188C312.178 121.693 312.612 122.364 312.936 123.199C313.26 124.034 313.422 125.062 313.422 126.284V127.136H303.331V125.398H311.376C311.376 124.659 311.229 124 310.933 123.42C310.643 122.841 310.229 122.384 309.689 122.048C309.155 121.713 308.524 121.545 307.797 121.545C306.996 121.545 306.303 121.744 305.717 122.142C305.138 122.534 304.692 123.045 304.379 123.676C304.067 124.307 303.911 124.983 303.911 125.705V126.864C303.911 127.852 304.081 128.69 304.422 129.378C304.768 130.06 305.249 130.58 305.862 130.938C306.476 131.29 307.189 131.466 308.001 131.466C308.53 131.466 309.007 131.392 309.433 131.244C309.865 131.091 310.237 130.864 310.55 130.562C310.862 130.256 311.104 129.875 311.274 129.42L313.217 129.966C313.013 130.625 312.669 131.205 312.186 131.705C311.703 132.199 311.107 132.585 310.396 132.864C309.686 133.136 308.888 133.273 308.001 133.273ZM318.493 125.125V133H316.482V119.909H318.425V121.955H318.595C318.902 121.29 319.368 120.756 319.993 120.352C320.618 119.943 321.425 119.739 322.413 119.739C323.3 119.739 324.075 119.92 324.74 120.284C325.405 120.642 325.922 121.188 326.291 121.92C326.661 122.648 326.845 123.568 326.845 124.682V133H324.834V124.818C324.834 123.79 324.567 122.989 324.033 122.415C323.499 121.835 322.766 121.545 321.834 121.545C321.192 121.545 320.618 121.685 320.112 121.963C319.612 122.241 319.217 122.648 318.928 123.182C318.638 123.716 318.493 124.364 318.493 125.125ZM336.214 119.909V121.614H329.43V119.909H336.214ZM331.407 116.773H333.418V129.25C333.418 129.818 333.501 130.244 333.665 130.528C333.836 130.807 334.052 130.994 334.313 131.091C334.58 131.182 334.862 131.227 335.157 131.227C335.379 131.227 335.56 131.216 335.702 131.193C335.844 131.165 335.958 131.142 336.043 131.125L336.452 132.932C336.316 132.983 336.126 133.034 335.881 133.085C335.637 133.142 335.327 133.17 334.952 133.17C334.384 133.17 333.827 133.048 333.282 132.804C332.742 132.56 332.293 132.188 331.935 131.688C331.583 131.188 331.407 130.557 331.407 129.795V116.773ZM343.092 133.307C342.262 133.307 341.509 133.151 340.833 132.838C340.157 132.52 339.62 132.062 339.222 131.466C338.825 130.864 338.626 130.136 338.626 129.284C338.626 128.534 338.773 127.926 339.069 127.46C339.364 126.989 339.759 126.619 340.254 126.352C340.748 126.085 341.293 125.886 341.89 125.756C342.492 125.619 343.097 125.511 343.705 125.432C344.501 125.33 345.146 125.253 345.64 125.202C346.14 125.145 346.504 125.051 346.731 124.92C346.964 124.79 347.08 124.562 347.08 124.239V124.17C347.08 123.33 346.85 122.676 346.39 122.21C345.935 121.744 345.245 121.511 344.319 121.511C343.359 121.511 342.606 121.722 342.06 122.142C341.515 122.562 341.131 123.011 340.91 123.489L339.001 122.807C339.342 122.011 339.796 121.392 340.364 120.949C340.938 120.5 341.563 120.187 342.239 120.011C342.921 119.83 343.592 119.739 344.251 119.739C344.671 119.739 345.154 119.79 345.7 119.892C346.251 119.989 346.782 120.19 347.293 120.497C347.81 120.804 348.239 121.267 348.58 121.886C348.921 122.506 349.092 123.335 349.092 124.375V133H347.08V131.227H346.978C346.842 131.511 346.614 131.815 346.296 132.139C345.978 132.463 345.555 132.739 345.026 132.966C344.498 133.193 343.853 133.307 343.092 133.307ZM343.398 131.5C344.194 131.5 344.864 131.344 345.41 131.031C345.961 130.719 346.376 130.315 346.654 129.821C346.938 129.327 347.08 128.807 347.08 128.261V126.42C346.995 126.523 346.808 126.616 346.518 126.702C346.234 126.781 345.904 126.852 345.529 126.915C345.16 126.972 344.799 127.023 344.447 127.068C344.1 127.108 343.819 127.142 343.603 127.17C343.08 127.239 342.592 127.349 342.137 127.503C341.688 127.651 341.325 127.875 341.046 128.176C340.773 128.472 340.637 128.875 340.637 129.386C340.637 130.085 340.896 130.614 341.413 130.972C341.935 131.324 342.597 131.5 343.398 131.5ZM354.774 125.125V133H352.763V119.909H354.706V121.955H354.876C355.183 121.29 355.649 120.756 356.274 120.352C356.899 119.943 357.706 119.739 358.695 119.739C359.581 119.739 360.357 119.92 361.021 120.284C361.686 120.642 362.203 121.188 362.572 121.92C362.942 122.648 363.126 123.568 363.126 124.682V133H361.115V124.818C361.115 123.79 360.848 122.989 360.314 122.415C359.78 121.835 359.047 121.545 358.115 121.545C357.473 121.545 356.899 121.685 356.393 121.963C355.893 122.241 355.499 122.648 355.209 123.182C354.919 123.716 354.774 124.364 354.774 125.125ZM372.495 119.909V121.614H365.711V119.909H372.495ZM367.688 116.773H369.7V129.25C369.7 129.818 369.782 130.244 369.947 130.528C370.117 130.807 370.333 130.994 370.594 131.091C370.862 131.182 371.143 131.227 371.438 131.227C371.66 131.227 371.842 131.216 371.984 131.193C372.126 131.165 372.239 131.142 372.325 131.125L372.734 132.932C372.597 132.983 372.407 133.034 372.163 133.085C371.918 133.142 371.609 133.17 371.234 133.17C370.665 133.17 370.109 133.048 369.563 132.804C369.023 132.56 368.575 132.188 368.217 131.688C367.864 131.188 367.688 130.557 367.688 129.795V116.773ZM380.869 133.273C379.607 133.273 378.519 132.994 377.604 132.438C376.695 131.875 375.994 131.091 375.499 130.085C375.011 129.074 374.766 127.898 374.766 126.557C374.766 125.216 375.011 124.034 375.499 123.011C375.994 121.983 376.681 121.182 377.562 120.608C378.448 120.028 379.482 119.739 380.664 119.739C381.346 119.739 382.019 119.852 382.684 120.08C383.349 120.307 383.954 120.676 384.499 121.188C385.045 121.693 385.479 122.364 385.803 123.199C386.127 124.034 386.289 125.062 386.289 126.284V127.136H376.198V125.398H384.244C384.244 124.659 384.096 124 383.8 123.42C383.511 122.841 383.096 122.384 382.556 122.048C382.022 121.713 381.391 121.545 380.664 121.545C379.863 121.545 379.17 121.744 378.585 122.142C378.005 122.534 377.559 123.045 377.246 123.676C376.934 124.307 376.778 124.983 376.778 125.705V126.864C376.778 127.852 376.948 128.69 377.289 129.378C377.636 130.06 378.116 130.58 378.729 130.938C379.343 131.29 380.056 131.466 380.869 131.466C381.397 131.466 381.874 131.392 382.3 131.244C382.732 131.091 383.104 130.864 383.417 130.562C383.729 130.256 383.971 129.875 384.141 129.42L386.085 129.966C385.88 130.625 385.536 131.205 385.053 131.705C384.57 132.199 383.974 132.585 383.263 132.864C382.553 133.136 381.755 133.273 380.869 133.273Z" fill="#F2F2F2"/>
</svg>
